<?xml version="1.0" encoding="UTF-8"?>
<svg xmlns="http://www.w3.org/2000/svg" viewBox="0 0 900 1180"
     font-family="Helvetica, Arial, sans-serif" fill="#000000">

  <rect width="900" height="1180" fill="#FFFFFF"/>

  <text x="450" y="60" text-anchor="middle" font-size="32" font-weight="700" fill="#000000">
    Charte graphique
  </text>
  <text x="450" y="90" text-anchor="middle" font-size="18" fill="#000000">
    Finantrack, application web de suivi de portefeuille boursier
  </text>
  <line x1="60" y1="110" x2="840" y2="110" stroke="#000000" stroke-width="1"/>

  <text x="60" y="160" font-size="22" font-weight="700" fill="#000000">Couleurs principales</text>
  <line x1="60" y1="170" x2="350" y2="170" stroke="#000000" stroke-width="2"/>

  <g transform="translate(60, 200)">
    <rect width="150" height="150" rx="8" fill="#2E75B6"/>
    <text x="170" y="40" font-size="16" font-weight="700" fill="#000000">Bleu primaire</text>
    <text x="170" y="65" font-size="13" fill="#000000">Titres, boutons, liens, en-têtes de tableau</text>
    <rect x="170" y="80" width="120" height="32" rx="4" fill="#FFFFFF" stroke="#000000"/>
    <text x="230" y="100" text-anchor="middle" font-family="Consolas, monospace" font-size="14" fill="#000000" font-weight="700">#2E75B6</text>
  </g>

  <g transform="translate(60, 380)">
    <rect width="150" height="150" rx="8" fill="#16A34A"/>
    <text x="170" y="40" font-size="16" font-weight="700" fill="#000000">Vert (hausse)</text>
    <text x="170" y="65" font-size="13" fill="#000000">Plus-value positive, indicateurs de succès</text>
    <rect x="170" y="80" width="120" height="32" rx="4" fill="#FFFFFF" stroke="#000000"/>
    <text x="230" y="100" text-anchor="middle" font-family="Consolas, monospace" font-size="14" fill="#000000" font-weight="700">#16A34A</text>
  </g>

  <g transform="translate(60, 560)">
    <rect width="150" height="150" rx="8" fill="#DC2626"/>
    <text x="170" y="40" font-size="16" font-weight="700" fill="#000000">Rouge (baisse)</text>
    <text x="170" y="65" font-size="13" fill="#000000">Plus-value négative, erreurs, alertes</text>
    <rect x="170" y="80" width="120" height="32" rx="4" fill="#FFFFFF" stroke="#000000"/>
    <text x="230" y="100" text-anchor="middle" font-family="Consolas, monospace" font-size="14" fill="#000000" font-weight="700">#DC2626</text>
  </g>

  <g transform="translate(60, 740)">
    <rect width="150" height="150" rx="8" fill="#1F2937"/>
    <text x="170" y="40" font-size="16" font-weight="700" fill="#000000">Gris foncé</text>
    <text x="170" y="65" font-size="13" fill="#000000">Fond du thème sombre</text>
    <rect x="170" y="80" width="120" height="32" rx="4" fill="#FFFFFF" stroke="#000000"/>
    <text x="230" y="100" text-anchor="middle" font-family="Consolas, monospace" font-size="14" fill="#000000" font-weight="700">#1F2937</text>
  </g>

  <text x="500" y="160" font-size="22" font-weight="700" fill="#000000">Polices</text>
  <line x1="500" y1="170" x2="700" y2="170" stroke="#000000" stroke-width="2"/>

  <g transform="translate(500, 200)">
    <rect width="360" height="160" rx="8" fill="#FFFFFF" stroke="#000000"/>
    <text x="20" y="35" font-size="14" font-weight="700" fill="#000000">Geist Sans</text>
    <text x="20" y="55" font-size="12" fill="#000000">Texte courant, titres, paragraphes, boutons</text>
    <text x="20" y="115" font-family="sans-serif" font-size="32" font-weight="700" fill="#000000">Aa Bb Cc 0123</text>
  </g>

  <g transform="translate(500, 380)">
    <rect width="360" height="160" rx="8" fill="#FFFFFF" stroke="#000000"/>
    <text x="20" y="35" font-size="14" font-weight="700" fill="#000000">Geist Mono</text>
    <text x="20" y="55" font-size="12" fill="#000000">Chiffres et caractères à largeur fixe</text>
    <text x="20" y="115" font-family="Consolas, monospace" font-size="32" font-weight="700" fill="#000000">Aa Bb Cc 0123</text>
  </g>

  <text x="500" y="600" font-size="22" font-weight="700" fill="#000000">Icônes</text>
  <line x1="500" y1="610" x2="700" y2="610" stroke="#000000" stroke-width="2"/>

  <g transform="translate(500, 640)">
    <rect width="360" height="250" rx="8" fill="#FFFFFF" stroke="#000000"/>
    <text x="20" y="40" font-size="16" font-weight="700" fill="#000000">lucide-react</text>

    <g stroke="#000000" stroke-width="2" fill="none" stroke-linecap="round" stroke-linejoin="round">

      <g transform="translate(40, 120)">
        <path d="M3 9.5l9-7 9 7V21a2 2 0 01-2 2h-4v-7h-6v7H5a2 2 0 01-2-2V9.5z"/>
      </g>

      <g transform="translate(120, 120)">
        <path d="M21 12V7H5a2 2 0 110-4h14v4"/>
        <path d="M3 5v14a2 2 0 002 2h16v-5"/>
        <path d="M18 12a2 2 0 00-2 2v0a2 2 0 002 2h3v-4h-3z"/>
      </g>

      <g transform="translate(200, 120)">
        <polyline points="22 7 13.5 15.5 8.5 10.5 2 17"/>
        <polyline points="16 7 22 7 22 13"/>
      </g>

      <g transform="translate(280, 120)">
        <circle cx="12" cy="12" r="3"/>
        <path d="M19.4 15a1.65 1.65 0 00.33 1.82l.06.06a2 2 0 01-2.83 2.83l-.06-.06a1.65 1.65 0 00-1.82-.33 1.65 1.65 0 00-1 1.51V21a2 2 0 01-4 0v-.09A1.65 1.65 0 009 19.4a1.65 1.65 0 00-1.82.33l-.06.06a2 2 0 11-2.83-2.83l.06-.06a1.65 1.65 0 00.33-1.82 1.65 1.65 0 00-1.51-1H3a2 2 0 010-4h.09A1.65 1.65 0 004.6 9a1.65 1.65 0 00-.33-1.82l-.06-.06a2 2 0 112.83-2.83l.06.06a1.65 1.65 0 001.82.33H9a1.65 1.65 0 001-1.51V3a2 2 0 014 0v.09a1.65 1.65 0 001 1.51 1.65 1.65 0 001.82-.33l.06-.06a2 2 0 112.83 2.83l-.06.06a1.65 1.65 0 00-.33 1.82V9a1.65 1.65 0 001.51 1H21a2 2 0 010 4h-.09a1.65 1.65 0 00-1.51 1z"/>
      </g>

      <g transform="translate(40, 190)">
        <line x1="12" y1="20" x2="12" y2="10"/>
        <line x1="18" y1="20" x2="18" y2="4"/>
        <line x1="6" y1="20" x2="6" y2="14"/>
      </g>

      <g transform="translate(120, 190)">
        <circle cx="11" cy="11" r="8"/>
        <line x1="21" y1="21" x2="16.65" y2="16.65"/>
      </g>

      <g transform="translate(200, 190)">
        <path d="M20 21v-2a4 4 0 00-4-4H8a4 4 0 00-4 4v2"/>
        <circle cx="12" cy="7" r="4"/>
      </g>

      <g transform="translate(280, 190)">
        <path d="M9 21H5a2 2 0 01-2-2V5a2 2 0 012-2h4"/>
        <polyline points="16 17 21 12 16 7"/>
        <line x1="21" y1="12" x2="9" y2="12"/>
      </g>

    </g>
  </g>

  <text x="450" y="1160" text-anchor="middle" font-size="12" fill="#000000">
    Lucas Narguet, dossier professionnel CDA, Finantrack
  </text>

</svg>
