<svg xmlns="http://www.w3.org/2000/svg" viewBox="0 0 1960 1520" font-family="Helvetica, Arial, sans-serif">
<defs><filter id="sh" x="-20%" y="-20%" width="140%" height="140%"><feDropShadow dx="0" dy="2" stdDeviation="3" flood-color="#1F2A37" flood-opacity="0.10"/></filter></defs>
<rect width="1960" height="1520" fill="#FFFFFF"/>
<rect x="80" y="980" width="1240" height="476" rx="14" fill="#FBFCFD" stroke="#C7D0D9" stroke-width="1.3" stroke-dasharray="7,6"/>
<text x="100" y="1010" font-family="Helvetica, Arial, sans-serif" font-size="14" fill="#7A8794">Tables de référence (sans relation)</text>
<path d="M420,236.0 L510.0,236.0 Q520.0,236.0 520.0,246.0 L520.0,246.0 Q520.0,256.0 530.0,256.0 L620,256.0" fill="none" stroke="#9AA7B4" stroke-width="1.7" stroke-linecap="round" stroke-linejoin="round"/>
<path d="M960,456.0 L1040,456.0 Q1050,456.0 1050,446.0 L1050,386.0 Q1050,376.0 1060,376.0 L1140,376.0" fill="none" stroke="#9AA7B4" stroke-width="1.7" stroke-linecap="round" stroke-linejoin="round"/>
<path d="M960,716.0 L1076,716.0 Q1086,716.0 1086,706.0 L1086,386.0 Q1086,376.0 1096,376.0 L1140,376.0" fill="none" stroke="#9AA7B4" stroke-width="1.7" stroke-linecap="round" stroke-linejoin="round"/>
<path d="M1560,416.0 L1530.0,416.0 Q1520.0,416.0 1520.0,406.0 L1520.0,386.0 Q1520.0,376.0 1510.0,376.0 L1480,376.0" fill="none" stroke="#9AA7B4" stroke-width="1.7" stroke-linecap="round" stroke-linejoin="round"/>
<g filter="url(#sh)"><rect x="140" y="1040" width="340" height="416" rx="10" fill="#FFFFFF" stroke="#E4E8EC" stroke-width="1"/></g><path d="M140,1050 v0 a10,10 0 0 1 10,-10 h320 a10,10 0 0 1 10,10 v0 z" fill="#2E6E8E"/><path d="M140,1050 h340 v46 h-340 z" fill="#ECEFF1"/><text x="162" y="1079.0" font-family="Helvetica, Arial, sans-serif" font-size="17" font-weight="bold" fill="#243240">CandleStock</text><line x1="140" y1="1096" x2="480" y2="1096" stroke="#E4E8EC" stroke-width="1"/><circle cx="164" cy="1116.0" r="5" fill="#4F7CAC"/><text x="182" y="1121.5" font-family="Helvetica, Arial, sans-serif" font-size="15.5" fill="#243240">id</text><text x="462" y="1121.0" font-family="Helvetica, Arial, sans-serif" font-size="14" fill="#9AA7B6" text-anchor="end">SERIAL</text><g stroke="#9AA7B6" stroke-width="1.4" fill="none"><circle cx="393.32" cy="1116.0" r="3.3"/><line x1="396.52000000000004" y1="1116.0" x2="402.92" y2="1116.0"/><line x1="400.42" y1="1116.0" x2="400.42" y2="1119.0"/><line x1="402.92" y1="1116.0" x2="402.92" y2="1120.0"/></g><circle cx="164" cy="1156.0" r="5" fill="#4F7CAC"/><text x="182" y="1161.5" font-family="Helvetica, Arial, sans-serif" font-size="15.5" fill="#243240">name</text><text x="462" y="1161.0" font-family="Helvetica, Arial, sans-serif" font-size="14" fill="#9AA7B6" text-anchor="end">TEXT</text><circle cx="164" cy="1196.0" r="5" fill="#4F7CAC"/><text x="182" y="1201.5" font-family="Helvetica, Arial, sans-serif" font-size="15.5" fill="#243240">ticker</text><text x="462" y="1201.0" font-family="Helvetica, Arial, sans-serif" font-size="14" fill="#9AA7B6" text-anchor="end">TEXT</text><circle cx="164" cy="1236.0" r="5" fill="#4F7CAC"/><text x="182" y="1241.5" font-family="Helvetica, Arial, sans-serif" font-size="15.5" fill="#243240">open</text><text x="462" y="1241.0" font-family="Helvetica, Arial, sans-serif" font-size="14" fill="#9AA7B6" text-anchor="end">DOUBLE PRECISION</text><circle cx="164" cy="1276.0" r="5" fill="#4F7CAC"/><text x="182" y="1281.5" font-family="Helvetica, Arial, sans-serif" font-size="15.5" fill="#243240">high</text><text x="462" y="1281.0" font-family="Helvetica, Arial, sans-serif" font-size="14" fill="#9AA7B6" text-anchor="end">DOUBLE PRECISION</text><circle cx="164" cy="1316.0" r="5" fill="#4F7CAC"/><text x="182" y="1321.5" font-family="Helvetica, Arial, sans-serif" font-size="15.5" fill="#243240">low</text><text x="462" y="1321.0" font-family="Helvetica, Arial, sans-serif" font-size="14" fill="#9AA7B6" text-anchor="end">DOUBLE PRECISION</text><circle cx="164" cy="1356.0" r="5" fill="#4F7CAC"/><text x="182" y="1361.5" font-family="Helvetica, Arial, sans-serif" font-size="15.5" fill="#243240">close</text><text x="462" y="1361.0" font-family="Helvetica, Arial, sans-serif" font-size="14" fill="#9AA7B6" text-anchor="end">DOUBLE PRECISION</text><circle cx="164" cy="1396.0" r="5" fill="#4F7CAC"/><text x="182" y="1401.5" font-family="Helvetica, Arial, sans-serif" font-size="15.5" fill="#243240">Volume</text><text x="462" y="1401.0" font-family="Helvetica, Arial, sans-serif" font-size="14" fill="#9AA7B6" text-anchor="end">INTEGER</text><circle cx="164" cy="1436.0" r="5" fill="#4F7CAC"/><text x="182" y="1441.5" font-family="Helvetica, Arial, sans-serif" font-size="15.5" fill="#243240">date</text><text x="462" y="1441.0" font-family="Helvetica, Arial, sans-serif" font-size="14" fill="#9AA7B6" text-anchor="end">TIMESTAMP(3)</text>
<g filter="url(#sh)"><rect x="560" y="1040" width="340" height="216" rx="10" fill="#FFFFFF" stroke="#E4E8EC" stroke-width="1"/></g><path d="M560,1050 v0 a10,10 0 0 1 10,-10 h320 a10,10 0 0 1 10,10 v0 z" fill="#2E6E8E"/><path d="M560,1050 h340 v46 h-340 z" fill="#ECEFF1"/><text x="582" y="1079.0" font-family="Helvetica, Arial, sans-serif" font-size="17" font-weight="bold" fill="#243240">CachedQuote</text><line x1="560" y1="1096" x2="900" y2="1096" stroke="#E4E8EC" stroke-width="1"/><circle cx="584" cy="1116.0" r="5" fill="#4F7CAC"/><text x="602" y="1121.5" font-family="Helvetica, Arial, sans-serif" font-size="15.5" fill="#243240">ticker</text><text x="882" y="1121.0" font-family="Helvetica, Arial, sans-serif" font-size="14" fill="#9AA7B6" text-anchor="end">TEXT</text><g stroke="#9AA7B6" stroke-width="1.4" fill="none"><circle cx="830.68" cy="1116.0" r="3.3"/><line x1="833.88" y1="1116.0" x2="840.28" y2="1116.0"/><line x1="837.78" y1="1116.0" x2="837.78" y2="1119.0"/><line x1="840.28" y1="1116.0" x2="840.28" y2="1120.0"/></g><circle cx="584" cy="1156.0" r="5" fill="#4F7CAC"/><text x="602" y="1161.5" font-family="Helvetica, Arial, sans-serif" font-size="15.5" fill="#243240">price</text><text x="882" y="1161.0" font-family="Helvetica, Arial, sans-serif" font-size="14" fill="#9AA7B6" text-anchor="end">DOUBLE PRECISION</text><circle cx="584" cy="1196.0" r="5" fill="#4F7CAC"/><text x="602" y="1201.5" font-family="Helvetica, Arial, sans-serif" font-size="15.5" fill="#243240">variation</text><text x="882" y="1201.0" font-family="Helvetica, Arial, sans-serif" font-size="14" fill="#9AA7B6" text-anchor="end">DOUBLE PRECISION</text><circle cx="584" cy="1236.0" r="5" fill="#4F7CAC"/><text x="602" y="1241.5" font-family="Helvetica, Arial, sans-serif" font-size="15.5" fill="#243240">updatedAt</text><text x="882" y="1241.0" font-family="Helvetica, Arial, sans-serif" font-size="14" fill="#9AA7B6" text-anchor="end">TIMESTAMP(3)</text>
<g filter="url(#sh)"><rect x="980" y="1040" width="340" height="216" rx="10" fill="#FFFFFF" stroke="#E4E8EC" stroke-width="1"/></g><path d="M980,1050 v0 a10,10 0 0 1 10,-10 h320 a10,10 0 0 1 10,10 v0 z" fill="#2E6E8E"/><path d="M980,1050 h340 v46 h-340 z" fill="#ECEFF1"/><text x="1002" y="1079.0" font-family="Helvetica, Arial, sans-serif" font-size="17" font-weight="bold" fill="#243240">SandboxStock</text><line x1="980" y1="1096" x2="1320" y2="1096" stroke="#E4E8EC" stroke-width="1"/><circle cx="1004" cy="1116.0" r="5" fill="#4F7CAC"/><text x="1022" y="1121.5" font-family="Helvetica, Arial, sans-serif" font-size="15.5" fill="#243240">id</text><text x="1302" y="1121.0" font-family="Helvetica, Arial, sans-serif" font-size="14" fill="#9AA7B6" text-anchor="end">SERIAL</text><g stroke="#9AA7B6" stroke-width="1.4" fill="none"><circle cx="1233.3200000000002" cy="1116.0" r="3.3"/><line x1="1236.52" y1="1116.0" x2="1242.92" y2="1116.0"/><line x1="1240.42" y1="1116.0" x2="1240.42" y2="1119.0"/><line x1="1242.92" y1="1116.0" x2="1242.92" y2="1120.0"/></g><circle cx="1004" cy="1156.0" r="5" fill="#4F7CAC"/><text x="1022" y="1161.5" font-family="Helvetica, Arial, sans-serif" font-size="15.5" fill="#243240">name</text><text x="1302" y="1161.0" font-family="Helvetica, Arial, sans-serif" font-size="14" fill="#9AA7B6" text-anchor="end">TEXT</text><circle cx="1004" cy="1196.0" r="5" fill="#4F7CAC"/><text x="1022" y="1201.5" font-family="Helvetica, Arial, sans-serif" font-size="15.5" fill="#243240">secteur</text><text x="1302" y="1201.0" font-family="Helvetica, Arial, sans-serif" font-size="14" fill="#9AA7B6" text-anchor="end">TEXT</text><circle cx="1004" cy="1236.0" r="5" fill="#4F7CAC"/><text x="1022" y="1241.5" font-family="Helvetica, Arial, sans-serif" font-size="15.5" fill="#243240">price</text><text x="1302" y="1241.0" font-family="Helvetica, Arial, sans-serif" font-size="14" fill="#9AA7B6" text-anchor="end">DOUBLE PRECISION</text>
<g filter="url(#sh)"><rect x="1140" y="300" width="340" height="296" rx="10" fill="#FFFFFF" stroke="#E4E8EC" stroke-width="1"/></g><path d="M1140,310 v0 a10,10 0 0 1 10,-10 h320 a10,10 0 0 1 10,10 v0 z" fill="#2E6E8E"/><path d="M1140,310 h340 v46 h-340 z" fill="#ECEFF1"/><text x="1162" y="339.0" font-family="Helvetica, Arial, sans-serif" font-size="17" font-weight="bold" fill="#243240">User</text><line x1="1140" y1="356" x2="1480" y2="356" stroke="#E4E8EC" stroke-width="1"/><circle cx="1164" cy="376.0" r="5" fill="#4F7CAC"/><text x="1182" y="381.5" font-family="Helvetica, Arial, sans-serif" font-size="15.5" fill="#243240">id</text><text x="1462" y="381.0" font-family="Helvetica, Arial, sans-serif" font-size="14" fill="#9AA7B6" text-anchor="end">TEXT</text><g stroke="#9AA7B6" stroke-width="1.4" fill="none"><circle cx="1410.68" cy="376.0" r="3.3"/><line x1="1413.8799999999999" y1="376.0" x2="1420.28" y2="376.0"/><line x1="1417.78" y1="376.0" x2="1417.78" y2="379.0"/><line x1="1420.28" y1="376.0" x2="1420.28" y2="380.0"/></g><circle cx="1164" cy="416.0" r="5" fill="#4F7CAC"/><text x="1182" y="421.5" font-family="Helvetica, Arial, sans-serif" font-size="15.5" fill="#243240">email</text><text x="1462" y="421.0" font-family="Helvetica, Arial, sans-serif" font-size="14" fill="#9AA7B6" text-anchor="end">TEXT</text><circle cx="1164" cy="456.0" r="5" fill="#4F7CAC"/><text x="1182" y="461.5" font-family="Helvetica, Arial, sans-serif" font-size="15.5" fill="#243240">password</text><text x="1462" y="461.0" font-family="Helvetica, Arial, sans-serif" font-size="14" fill="#9AA7B6" text-anchor="end">TEXT</text><circle cx="1164" cy="496.0" r="5" fill="#4F7CAC"/><text x="1182" y="501.5" font-family="Helvetica, Arial, sans-serif" font-size="15.5" fill="#243240">name</text><text x="1462" y="501.0" font-family="Helvetica, Arial, sans-serif" font-size="14" fill="#9AA7B6" text-anchor="end">TEXT</text><circle cx="1164" cy="536.0" r="5" fill="#4F7CAC"/><text x="1182" y="541.5" font-family="Helvetica, Arial, sans-serif" font-size="15.5" fill="#243240">createdAt</text><text x="1462" y="541.0" font-family="Helvetica, Arial, sans-serif" font-size="14" fill="#9AA7B6" text-anchor="end">TIMESTAMP(3)</text><circle cx="1164" cy="576.0" r="5" fill="#4F7CAC"/><text x="1182" y="581.5" font-family="Helvetica, Arial, sans-serif" font-size="15.5" fill="#243240">updatedAt</text><text x="1462" y="581.0" font-family="Helvetica, Arial, sans-serif" font-size="14" fill="#9AA7B6" text-anchor="end">TIMESTAMP(3)</text>
<g filter="url(#sh)"><rect x="620" y="180" width="340" height="376" rx="10" fill="#FFFFFF" stroke="#E4E8EC" stroke-width="1"/></g><path d="M620,190 v0 a10,10 0 0 1 10,-10 h320 a10,10 0 0 1 10,10 v0 z" fill="#2E6E8E"/><path d="M620,190 h340 v46 h-340 z" fill="#ECEFF1"/><text x="642" y="219.0" font-family="Helvetica, Arial, sans-serif" font-size="17" font-weight="bold" fill="#243240">Stock</text><line x1="620" y1="236" x2="960" y2="236" stroke="#E4E8EC" stroke-width="1"/><circle cx="644" cy="256.0" r="5" fill="#4F7CAC"/><text x="662" y="261.5" font-family="Helvetica, Arial, sans-serif" font-size="15.5" fill="#243240">id</text><text x="942" y="261.0" font-family="Helvetica, Arial, sans-serif" font-size="14" fill="#9AA7B6" text-anchor="end">SERIAL</text><g stroke="#9AA7B6" stroke-width="1.4" fill="none"><circle cx="873.3199999999999" cy="256.0" r="3.3"/><line x1="876.52" y1="256.0" x2="882.92" y2="256.0"/><line x1="880.42" y1="256.0" x2="880.42" y2="259.0"/><line x1="882.92" y1="256.0" x2="882.92" y2="260.0"/></g><circle cx="644" cy="296.0" r="5" fill="#4F7CAC"/><text x="662" y="301.5" font-family="Helvetica, Arial, sans-serif" font-size="15.5" fill="#243240">ticker</text><text x="942" y="301.0" font-family="Helvetica, Arial, sans-serif" font-size="14" fill="#9AA7B6" text-anchor="end">TEXT</text><circle cx="644" cy="336.0" r="5" fill="#4F7CAC"/><text x="662" y="341.5" font-family="Helvetica, Arial, sans-serif" font-size="15.5" fill="#243240">name</text><text x="942" y="341.0" font-family="Helvetica, Arial, sans-serif" font-size="14" fill="#9AA7B6" text-anchor="end">TEXT</text><circle cx="644" cy="376.0" r="5" fill="#4F7CAC"/><text x="662" y="381.5" font-family="Helvetica, Arial, sans-serif" font-size="15.5" fill="#243240">quantity</text><text x="942" y="381.0" font-family="Helvetica, Arial, sans-serif" font-size="14" fill="#9AA7B6" text-anchor="end">INTEGER</text><circle cx="644" cy="416.0" r="5" fill="#4F7CAC"/><text x="662" y="421.5" font-family="Helvetica, Arial, sans-serif" font-size="15.5" fill="#243240">buyPrice</text><text x="942" y="421.0" font-family="Helvetica, Arial, sans-serif" font-size="14" fill="#9AA7B6" text-anchor="end">DOUBLE PRECISION</text><circle cx="644" cy="456.0" r="5" fill="#4F7CAC"/><text x="662" y="461.5" font-family="Helvetica, Arial, sans-serif" font-size="15.5" fill="#243240">userId</text><text x="942" y="461.0" font-family="Helvetica, Arial, sans-serif" font-size="14" fill="#9AA7B6" text-anchor="end">TEXT</text><circle cx="644" cy="496.0" r="5" fill="#4F7CAC"/><text x="662" y="501.5" font-family="Helvetica, Arial, sans-serif" font-size="15.5" fill="#243240">createdAt</text><text x="942" y="501.0" font-family="Helvetica, Arial, sans-serif" font-size="14" fill="#9AA7B6" text-anchor="end">TIMESTAMP(3)</text><circle cx="644" cy="536.0" r="5" fill="#4F7CAC"/><text x="662" y="541.5" font-family="Helvetica, Arial, sans-serif" font-size="15.5" fill="#243240">updatedAt</text><text x="942" y="541.0" font-family="Helvetica, Arial, sans-serif" font-size="14" fill="#9AA7B6" text-anchor="end">TIMESTAMP(3)</text>
<g filter="url(#sh)"><rect x="80" y="120" width="340" height="416" rx="10" fill="#FFFFFF" stroke="#E4E8EC" stroke-width="1"/></g><path d="M80,130 v0 a10,10 0 0 1 10,-10 h320 a10,10 0 0 1 10,10 v0 z" fill="#2E6E8E"/><path d="M80,130 h340 v46 h-340 z" fill="#ECEFF1"/><text x="102" y="159.0" font-family="Helvetica, Arial, sans-serif" font-size="17" font-weight="bold" fill="#243240">StockSnapshot</text><line x1="80" y1="176" x2="420" y2="176" stroke="#E4E8EC" stroke-width="1"/><circle cx="104" cy="196.0" r="5" fill="#4F7CAC"/><text x="122" y="201.5" font-family="Helvetica, Arial, sans-serif" font-size="15.5" fill="#243240">id</text><text x="402" y="201.0" font-family="Helvetica, Arial, sans-serif" font-size="14" fill="#9AA7B6" text-anchor="end">SERIAL</text><g stroke="#9AA7B6" stroke-width="1.4" fill="none"><circle cx="333.32" cy="196.0" r="3.3"/><line x1="336.52000000000004" y1="196.0" x2="342.92" y2="196.0"/><line x1="340.42" y1="196.0" x2="340.42" y2="199.0"/><line x1="342.92" y1="196.0" x2="342.92" y2="200.0"/></g><circle cx="104" cy="236.0" r="5" fill="#4F7CAC"/><text x="122" y="241.5" font-family="Helvetica, Arial, sans-serif" font-size="15.5" fill="#243240">stockId</text><text x="402" y="241.0" font-family="Helvetica, Arial, sans-serif" font-size="14" fill="#9AA7B6" text-anchor="end">INTEGER</text><circle cx="104" cy="276.0" r="5" fill="#4F7CAC"/><text x="122" y="281.5" font-family="Helvetica, Arial, sans-serif" font-size="15.5" fill="#243240">ticker</text><text x="402" y="281.0" font-family="Helvetica, Arial, sans-serif" font-size="14" fill="#9AA7B6" text-anchor="end">TEXT</text><circle cx="104" cy="316.0" r="5" fill="#4F7CAC"/><text x="122" y="321.5" font-family="Helvetica, Arial, sans-serif" font-size="15.5" fill="#243240">userId</text><text x="402" y="321.0" font-family="Helvetica, Arial, sans-serif" font-size="14" fill="#9AA7B6" text-anchor="end">TEXT</text><circle cx="104" cy="356.0" r="5" fill="#4F7CAC"/><text x="122" y="361.5" font-family="Helvetica, Arial, sans-serif" font-size="15.5" fill="#243240">price</text><text x="402" y="361.0" font-family="Helvetica, Arial, sans-serif" font-size="14" fill="#9AA7B6" text-anchor="end">DOUBLE PRECISION</text><circle cx="104" cy="396.0" r="5" fill="#4F7CAC"/><text x="122" y="401.5" font-family="Helvetica, Arial, sans-serif" font-size="15.5" fill="#243240">quantity</text><text x="402" y="401.0" font-family="Helvetica, Arial, sans-serif" font-size="14" fill="#9AA7B6" text-anchor="end">INTEGER</text><circle cx="104" cy="436.0" r="5" fill="#4F7CAC"/><text x="122" y="441.5" font-family="Helvetica, Arial, sans-serif" font-size="15.5" fill="#243240">totalValue</text><text x="402" y="441.0" font-family="Helvetica, Arial, sans-serif" font-size="14" fill="#9AA7B6" text-anchor="end">DOUBLE PRECISION</text><circle cx="104" cy="476.0" r="5" fill="#4F7CAC"/><text x="122" y="481.5" font-family="Helvetica, Arial, sans-serif" font-size="15.5" fill="#243240">snapshotDate</text><text x="402" y="481.0" font-family="Helvetica, Arial, sans-serif" font-size="14" fill="#9AA7B6" text-anchor="end">TIMESTAMP(3)</text><circle cx="104" cy="516.0" r="5" fill="#4F7CAC"/><text x="122" y="521.5" font-family="Helvetica, Arial, sans-serif" font-size="15.5" fill="#243240">createdAt</text><text x="402" y="521.0" font-family="Helvetica, Arial, sans-serif" font-size="14" fill="#9AA7B6" text-anchor="end">TIMESTAMP(3)</text>
<g filter="url(#sh)"><rect x="620" y="640" width="340" height="296" rx="10" fill="#FFFFFF" stroke="#E4E8EC" stroke-width="1"/></g><path d="M620,650 v0 a10,10 0 0 1 10,-10 h320 a10,10 0 0 1 10,10 v0 z" fill="#2E6E8E"/><path d="M620,650 h340 v46 h-340 z" fill="#ECEFF1"/><text x="642" y="679.0" font-family="Helvetica, Arial, sans-serif" font-size="17" font-weight="bold" fill="#243240">SandboxState</text><line x1="620" y1="696" x2="960" y2="696" stroke="#E4E8EC" stroke-width="1"/><circle cx="644" cy="716.0" r="5" fill="#4F7CAC"/><text x="662" y="721.5" font-family="Helvetica, Arial, sans-serif" font-size="15.5" fill="#243240">userId</text><text x="942" y="721.0" font-family="Helvetica, Arial, sans-serif" font-size="14" fill="#9AA7B6" text-anchor="end">TEXT</text><g stroke="#9AA7B6" stroke-width="1.4" fill="none"><circle cx="890.68" cy="716.0" r="3.3"/><line x1="893.88" y1="716.0" x2="900.28" y2="716.0"/><line x1="897.78" y1="716.0" x2="897.78" y2="719.0"/><line x1="900.28" y1="716.0" x2="900.28" y2="720.0"/></g><circle cx="644" cy="756.0" r="5" fill="#4F7CAC"/><text x="662" y="761.5" font-family="Helvetica, Arial, sans-serif" font-size="15.5" fill="#243240">liquidite</text><text x="942" y="761.0" font-family="Helvetica, Arial, sans-serif" font-size="14" fill="#9AA7B6" text-anchor="end">DOUBLE PRECISION</text><circle cx="644" cy="796.0" r="5" fill="#4F7CAC"/><text x="662" y="801.5" font-family="Helvetica, Arial, sans-serif" font-size="15.5" fill="#243240">positions</text><text x="942" y="801.0" font-family="Helvetica, Arial, sans-serif" font-size="14" fill="#9AA7B6" text-anchor="end">JSONB</text><circle cx="644" cy="836.0" r="5" fill="#4F7CAC"/><text x="662" y="841.5" font-family="Helvetica, Arial, sans-serif" font-size="15.5" fill="#243240">historique</text><text x="942" y="841.0" font-family="Helvetica, Arial, sans-serif" font-size="14" fill="#9AA7B6" text-anchor="end">JSONB</text><circle cx="644" cy="876.0" r="5" fill="#4F7CAC"/><text x="662" y="881.5" font-family="Helvetica, Arial, sans-serif" font-size="15.5" fill="#243240">candles</text><text x="942" y="881.0" font-family="Helvetica, Arial, sans-serif" font-size="14" fill="#9AA7B6" text-anchor="end">JSONB</text><circle cx="644" cy="916.0" r="5" fill="#4F7CAC"/><text x="662" y="921.5" font-family="Helvetica, Arial, sans-serif" font-size="15.5" fill="#243240">updatedAt</text><text x="942" y="921.0" font-family="Helvetica, Arial, sans-serif" font-size="14" fill="#9AA7B6" text-anchor="end">TIMESTAMP(3)</text>
<g filter="url(#sh)"><rect x="1560" y="300" width="340" height="296" rx="10" fill="#FFFFFF" stroke="#E4E8EC" stroke-width="1"/></g><path d="M1560,310 v0 a10,10 0 0 1 10,-10 h320 a10,10 0 0 1 10,10 v0 z" fill="#2E6E8E"/><path d="M1560,310 h340 v46 h-340 z" fill="#ECEFF1"/><text x="1582" y="339.0" font-family="Helvetica, Arial, sans-serif" font-size="17" font-weight="bold" fill="#243240">PasswordResetToken</text><line x1="1560" y1="356" x2="1900" y2="356" stroke="#E4E8EC" stroke-width="1"/><circle cx="1584" cy="376.0" r="5" fill="#4F7CAC"/><text x="1602" y="381.5" font-family="Helvetica, Arial, sans-serif" font-size="15.5" fill="#243240">id</text><text x="1882" y="381.0" font-family="Helvetica, Arial, sans-serif" font-size="14" fill="#9AA7B6" text-anchor="end">TEXT</text><g stroke="#9AA7B6" stroke-width="1.4" fill="none"><circle cx="1830.68" cy="376.0" r="3.3"/><line x1="1833.8799999999999" y1="376.0" x2="1840.28" y2="376.0"/><line x1="1837.78" y1="376.0" x2="1837.78" y2="379.0"/><line x1="1840.28" y1="376.0" x2="1840.28" y2="380.0"/></g><circle cx="1584" cy="416.0" r="5" fill="#4F7CAC"/><text x="1602" y="421.5" font-family="Helvetica, Arial, sans-serif" font-size="15.5" fill="#243240">userId</text><text x="1882" y="421.0" font-family="Helvetica, Arial, sans-serif" font-size="14" fill="#9AA7B6" text-anchor="end">TEXT</text><circle cx="1584" cy="456.0" r="5" fill="#4F7CAC"/><text x="1602" y="461.5" font-family="Helvetica, Arial, sans-serif" font-size="15.5" fill="#243240">tokenHash</text><text x="1882" y="461.0" font-family="Helvetica, Arial, sans-serif" font-size="14" fill="#9AA7B6" text-anchor="end">TEXT</text><circle cx="1584" cy="496.0" r="5" fill="#4F7CAC"/><text x="1602" y="501.5" font-family="Helvetica, Arial, sans-serif" font-size="15.5" fill="#243240">expiresAt</text><text x="1882" y="501.0" font-family="Helvetica, Arial, sans-serif" font-size="14" fill="#9AA7B6" text-anchor="end">TIMESTAMP(3)</text><circle cx="1584" cy="536.0" r="5" fill="#4F7CAC"/><text x="1602" y="541.5" font-family="Helvetica, Arial, sans-serif" font-size="15.5" fill="#243240">usedAt</text><text x="1882" y="541.0" font-family="Helvetica, Arial, sans-serif" font-size="14" fill="#9AA7B6" text-anchor="end">TIMESTAMP(3)</text><circle cx="1584" cy="576.0" r="5" fill="#4F7CAC"/><text x="1602" y="581.5" font-family="Helvetica, Arial, sans-serif" font-size="15.5" fill="#243240">createdAt</text><text x="1882" y="581.0" font-family="Helvetica, Arial, sans-serif" font-size="14" fill="#9AA7B6" text-anchor="end">TIMESTAMP(3)</text>
</svg>