<svg xmlns="http://www.w3.org/2000/svg" viewBox="0 0 1400 1120" font-family="Inter, DejaVu Sans, Helvetica, Arial, sans-serif"><defs><linearGradient id="brandGrad" x1="0" y1="0" x2="1" y2="1"><stop offset="0%" stop-color="#38BDF8"/><stop offset="100%" stop-color="#22C55E"/></linearGradient></defs><rect width="1400" height="100%" fill="#ffffff"/><rect x="0" y="0" width="1400" height="6" fill="url(#brandGrad)"/><text x="48" y="64" font-family="Inter, DejaVu Sans, Helvetica, Arial, sans-serif" font-size="15" font-weight="700" fill="#64748B" text-anchor="start" letter-spacing="2">FinanTrack</text><text x="48" y="104" font-family="Inter, DejaVu Sans, Helvetica, Arial, sans-serif" font-size="30" font-weight="700" fill="#1E293B" text-anchor="start">Composants &amp; iconographie</text><text x="48" y="132" font-family="Inter, DejaVu Sans, Helvetica, Arial, sans-serif" font-size="15" font-weight="400" fill="#64748B" text-anchor="start">Bibliothèque shadcn/ui + daisyUI, icônes lucide-react, rayon de base 0.75rem (12 px).</text><line x1="48" y1="152" x2="1352" y2="152" stroke="#E2E8F0" stroke-width="1.4"/><text x="48" y="200" font-family="Inter, DejaVu Sans, Helvetica, Arial, sans-serif" font-size="17" font-weight="700" fill="#1E293B" text-anchor="start">Boutons</text><rect x="48" y="218" width="180" height="44" rx="10" fill="#38BDF8"/><text x="138.0" y="246" font-family="Inter, DejaVu Sans, Helvetica, Arial, sans-serif" font-size="15" font-weight="500" fill="#0F172A" text-anchor="middle">Bouton primaire</text><rect x="244" y="218" width="150" height="44" rx="10" fill="#60A5FA"/><text x="319.0" y="246" font-family="Inter, DejaVu Sans, Helvetica, Arial, sans-serif" font-size="15" font-weight="500" fill="#ffffff" text-anchor="middle">Connexion</text><rect x="410" y="218" width="130" height="44" rx="10" fill="#ffffff" stroke="#E2E8F0" stroke-width="1.4"/><text x="475.0" y="246" font-family="Inter, DejaVu Sans, Helvetica, Arial, sans-serif" font-size="15" font-weight="500" fill="#1E293B" text-anchor="middle">Ghost</text><rect x="556" y="218" width="150" height="44" rx="10" fill="#EF4444"/><text x="631.0" y="246" font-family="Inter, DejaVu Sans, Helvetica, Arial, sans-serif" font-size="15" font-weight="500" fill="#ffffff" text-anchor="middle">Destructif</text><text x="48" y="300" font-family="Inter, DejaVu Sans, Helvetica, Arial, sans-serif" font-size="12.5" font-weight="400" fill="#64748B" text-anchor="start">États : défaut · survol (opacité 90%) · focus (anneau --ring #38BDF8) · désactivé.</text><text x="760" y="200" font-family="Inter, DejaVu Sans, Helvetica, Arial, sans-serif" font-size="17" font-weight="700" fill="#1E293B" text-anchor="start">Carte (Card)</text><rect x="760" y="221" width="592" height="180" rx="14" fill="#0f172a" opacity="0.06"/><rect x="760" y="218" width="592" height="180" rx="14" fill="#ffffff" stroke="#E2E8F0" stroke-width="1.4"/><g transform="translate(784,242)"><rect x="0" y="0" width="36" height="36" rx="7.92" fill="url(#brandGrad)"/><g transform="translate(6.4799999999999995,6.4799999999999995) scale(0.96)" fill="none" stroke="#ffffff" stroke-width="2.3232000000000004" stroke-linecap="round" stroke-linejoin="round"><polyline points="22 7 13.5 15.5 8.5 10.5 2 17"/><polyline points="16 7 22 7 22 13"/></g></g><text x="832" y="256" font-family="Inter, DejaVu Sans, Helvetica, Arial, sans-serif" font-size="15" font-weight="500" fill="#1E293B" text-anchor="start">Valorisation du portefeuille</text><text x="832" y="278" font-family="Inter, DejaVu Sans, Helvetica, Arial, sans-serif" font-size="12.5" font-weight="400" fill="#64748B" text-anchor="start">Mise à jour en temps réel</text><text x="784" y="336" font-family="DejaVu Sans Mono, monospace" font-size="30" font-weight="600" fill="#1E293B" text-anchor="start">12 480,50 €</text><text x="784" y="368" font-family="DejaVu Sans Mono, monospace" font-size="13" font-weight="600" fill="#22C55E" text-anchor="start">+312,40 € (+2,6 %) aujourd'hui</text><polyline points="1120,368.0 1142,353.63260393860526 1164,344.56124197273374 1186,343.81405146348635 1208,350.85454746728374 1230,361.8113592575097 1252,371.1360499061586 1274,373.97909834195855 1296,368.2665878313516 1318,355.58830996397853" fill="none" stroke="#38BDF8" stroke-width="2.4" stroke-linecap="round"/><text x="48" y="360" font-family="Inter, DejaVu Sans, Helvetica, Arial, sans-serif" font-size="17" font-weight="700" fill="#1E293B" text-anchor="start">Badges / Pastilles</text><rect x="48" y="378" width="66.5" height="30" rx="15" fill="#DCFCE7"/><text x="81.25" y="398" font-family="Inter, DejaVu Sans, Helvetica, Arial, sans-serif" font-size="13" font-weight="500" fill="#15803D" text-anchor="middle">Actif</text><rect x="128.5" y="378" width="109.0" height="30" rx="15" fill="#FEF3C7"/><text x="183.0" y="398" font-family="Inter, DejaVu Sans, Helvetica, Arial, sans-serif" font-size="13" font-weight="500" fill="#B45309" text-anchor="middle">En attente</text><rect x="251.5" y="378" width="66.5" height="30" rx="15" fill="#FEE2E2"/><text x="284.75" y="398" font-family="Inter, DejaVu Sans, Helvetica, Arial, sans-serif" font-size="13" font-weight="500" fill="#B91C1C" text-anchor="middle">Perte</text><rect x="332.0" y="378" width="58.0" height="30" rx="15" fill="#E0F2FE"/><text x="361.0" y="398" font-family="Inter, DejaVu Sans, Helvetica, Arial, sans-serif" font-size="13" font-weight="500" fill="#0369A1" text-anchor="middle">Info</text><rect x="404.0" y="378" width="75.0" height="30" rx="15" fill="#E2E8F0"/><text x="441.5" y="398" font-family="Inter, DejaVu Sans, Helvetica, Arial, sans-serif" font-size="13" font-weight="500" fill="#475569" text-anchor="middle">Neutre</text><text x="48" y="460" font-family="Inter, DejaVu Sans, Helvetica, Arial, sans-serif" font-size="17" font-weight="700" fill="#1E293B" text-anchor="start">Champ de saisie</text><text x="48" y="498" font-family="Inter, DejaVu Sans, Helvetica, Arial, sans-serif" font-size="13" font-weight="500" fill="#1E293B" text-anchor="start">Email</text><rect x="48" y="508" width="320" height="46" rx="10" fill="#ffffff" stroke="#E2E8F0" stroke-width="1.4"/><text x="66" y="536" font-family="Inter, DejaVu Sans, Helvetica, Arial, sans-serif" font-size="14" font-weight="400" fill="#64748B" text-anchor="start">vous@exemple.com</text><text x="404" y="498" font-family="Inter, DejaVu Sans, Helvetica, Arial, sans-serif" font-size="13" font-weight="500" fill="#1E293B" text-anchor="start">Focus</text><rect x="404" y="508" width="320" height="46" rx="10" fill="#ffffff" stroke="#38BDF8" stroke-width="2"/><rect x="401" y="505" width="326" height="52" rx="12" fill="none" stroke="#38BDF8" stroke-opacity="0.3" stroke-width="3"/><text x="422" y="536" font-family="Inter, DejaVu Sans, Helvetica, Arial, sans-serif" font-size="14" font-weight="400" fill="#1E293B" text-anchor="start">12 actions Apple</text><text x="760" y="460" font-family="Inter, DejaVu Sans, Helvetica, Arial, sans-serif" font-size="17" font-weight="700" fill="#1E293B" text-anchor="start">Rayons de bordure</text><rect x="760" y="508" width="110" height="80" rx="8" fill="#F8FAFC" stroke="#E2E8F0" stroke-width="1.4"/><text x="815" y="544" font-family="Inter, DejaVu Sans, Helvetica, Arial, sans-serif" font-size="15" font-weight="600" fill="#1E293B" text-anchor="middle">sm</text><text x="815" y="566" font-family="DejaVu Sans Mono, monospace" font-size="12" font-weight="400" fill="#64748B" text-anchor="middle">8px</text><rect x="898" y="508" width="110" height="80" rx="10" fill="#F8FAFC" stroke="#E2E8F0" stroke-width="1.4"/><text x="953" y="544" font-family="Inter, DejaVu Sans, Helvetica, Arial, sans-serif" font-size="15" font-weight="600" fill="#1E293B" text-anchor="middle">md</text><text x="953" y="566" font-family="DejaVu Sans Mono, monospace" font-size="12" font-weight="400" fill="#64748B" text-anchor="middle">10px</text><rect x="1036" y="508" width="110" height="80" rx="12" fill="#F8FAFC" stroke="#E2E8F0" stroke-width="1.4"/><text x="1091" y="544" font-family="Inter, DejaVu Sans, Helvetica, Arial, sans-serif" font-size="15" font-weight="600" fill="#1E293B" text-anchor="middle">lg</text><text x="1091" y="566" font-family="DejaVu Sans Mono, monospace" font-size="12" font-weight="400" fill="#64748B" text-anchor="middle">12px</text><rect x="1174" y="508" width="110" height="80" rx="16" fill="#F8FAFC" stroke="#E2E8F0" stroke-width="1.4"/><text x="1229" y="544" font-family="Inter, DejaVu Sans, Helvetica, Arial, sans-serif" font-size="15" font-weight="600" fill="#1E293B" text-anchor="middle">xl</text><text x="1229" y="566" font-family="DejaVu Sans Mono, monospace" font-size="12" font-weight="400" fill="#64748B" text-anchor="middle">16px</text><text x="760" y="604" font-family="Inter, DejaVu Sans, Helvetica, Arial, sans-serif" font-size="12.5" font-weight="400" fill="#64748B" text-anchor="start">Base --radius : 0.75rem (12 px = lg).</text><text x="48" y="660" font-family="Inter, DejaVu Sans, Helvetica, Arial, sans-serif" font-size="17" font-weight="700" fill="#1E293B" text-anchor="start">Iconographie — lucide-react</text><text x="48" y="686" font-family="Inter, DejaVu Sans, Helvetica, Arial, sans-serif" font-size="12.5" font-weight="400" fill="#64748B" text-anchor="start">Style trait, 2 px, extrémités arrondies. Couleur = texte courant.</text><rect x="48" y="710" width="120" height="120" rx="14" fill="#F8FAFC" stroke="#E2E8F0" stroke-width="1.4"/><g transform="translate(84,738)" fill="none" stroke="#1E293B" stroke-width="2" stroke-linecap="round" stroke-linejoin="round"><polyline points="22 7 13.5 15.5 8.5 10.5 2 17"/><polyline points="16 7 22 7 22 13"/></g><text x="108" y="852" font-family="DejaVu Sans Mono, monospace" font-size="12.5" font-weight="400" fill="#64748B" text-anchor="middle">trending-up</text><rect x="196" y="710" width="120" height="120" rx="14" fill="#F8FAFC" stroke="#E2E8F0" stroke-width="1.4"/><g transform="translate(232,738)" fill="none" stroke="#1E293B" stroke-width="2" stroke-linecap="round" stroke-linejoin="round"><path d="M19 21v-2a4 4 0 0 0-4-4H9a4 4 0 0 0-4 4v2"/><circle cx="12" cy="7" r="4"/></g><text x="256" y="852" font-family="DejaVu Sans Mono, monospace" font-size="12.5" font-weight="400" fill="#64748B" text-anchor="middle">user</text><rect x="344" y="710" width="120" height="120" rx="14" fill="#F8FAFC" stroke="#E2E8F0" stroke-width="1.4"/><g transform="translate(380,738)" fill="none" stroke="#1E293B" stroke-width="2" stroke-linecap="round" stroke-linejoin="round"><path d="M12 3a6 6 0 0 0 9 9 9 9 0 1 1-9-9Z"/></g><text x="404" y="852" font-family="DejaVu Sans Mono, monospace" font-size="12.5" font-weight="400" fill="#64748B" text-anchor="middle">moon</text><rect x="492" y="710" width="120" height="120" rx="14" fill="#F8FAFC" stroke="#E2E8F0" stroke-width="1.4"/><g transform="translate(528,738)" fill="none" stroke="#1E293B" stroke-width="2" stroke-linecap="round" stroke-linejoin="round"><circle cx="12" cy="12" r="4"/><path d="M12 2v2M12 20v2M4.9 4.9l1.4 1.4M17.7 17.7l1.4 1.4M2 12h2M20 12h2M4.9 19.1l1.4-1.4M17.7 6.3l1.4-1.4"/></g><text x="552" y="852" font-family="DejaVu Sans Mono, monospace" font-size="12.5" font-weight="400" fill="#64748B" text-anchor="middle">sun</text><rect x="640" y="710" width="120" height="120" rx="14" fill="#F8FAFC" stroke="#E2E8F0" stroke-width="1.4"/><g transform="translate(676,738)" fill="none" stroke="#1E293B" stroke-width="2" stroke-linecap="round" stroke-linejoin="round"><path d="M6 8a6 6 0 0 1 12 0c0 7 3 9 3 9H3s3-2 3-9"/><path d="M10.3 21a1.94 1.94 0 0 0 3.4 0"/></g><text x="700" y="852" font-family="DejaVu Sans Mono, monospace" font-size="12.5" font-weight="400" fill="#64748B" text-anchor="middle">bell</text><rect x="788" y="710" width="120" height="120" rx="14" fill="#F8FAFC" stroke="#E2E8F0" stroke-width="1.4"/><g transform="translate(824,738)" fill="none" stroke="#1E293B" stroke-width="2" stroke-linecap="round" stroke-linejoin="round"><path d="M19 7V5a2 2 0 0 0-2-2H5a2 2 0 0 0 0 4h15a1 1 0 0 1 1 1v4a1 1 0 0 1-1 1H5a2 2 0 0 1-2-2V5"/><path d="M3 5v14a2 2 0 0 0 2 2h15a1 1 0 0 0 1-1v-4"/><circle cx="17" cy="14" r="0.6" fill="#1E293B"/></g><text x="848" y="852" font-family="DejaVu Sans Mono, monospace" font-size="12.5" font-weight="400" fill="#64748B" text-anchor="middle">wallet</text></svg>